<svg width="358" height="324" viewBox="0 0 358 324" fill="none" xmlns="http://www.w3.org/2000/svg">
<path d="M313.25 94.5V229.5M44.75 94.5V148.5C44.75 152.08 46.3216 155.514 49.119 158.046C51.9164 160.578 55.7105 162 59.6667 162H104.417L44.75 94.5ZM104.417 94.5V229.5V94.5ZM149.167 108V216C149.167 219.58 150.738 223.014 153.536 225.546C156.333 228.078 160.127 229.5 164.083 229.5H193.917C197.873 229.5 201.667 228.078 204.464 225.546C207.262 223.014 208.833 219.58 208.833 216V108C208.833 104.42 207.262 100.986 204.464 98.4541C201.667 95.9223 197.873 94.5 193.917 94.5H164.083C160.127 94.5 156.333 95.9223 153.536 98.4541C150.738 100.986 149.167 104.42 149.167 108ZM253.583 94.5V148.5C253.583 152.08 255.155 155.514 257.952 158.046C260.75 160.578 264.544 162 268.5 162H313.25L253.583 94.5Z" stroke="#A31621" stroke-width="2" stroke-linecap="round" stroke-linejoin="round"/>
<path d="M114.22 275C114.967 275 115.627 275.173 116.2 275.52C116.773 275.853 117.227 276.32 117.56 276.92C117.893 277.52 118.06 278.207 118.06 278.98C118.06 279.753 117.893 280.453 117.56 281.08C117.227 281.693 116.773 282.18 116.2 282.54C115.627 282.9 114.967 283.08 114.22 283.08H109.98L110.08 282.88V288.4C110.08 288.56 110.02 288.7 109.9 288.82C109.78 288.94 109.64 289 109.48 289C109.293 289 109.147 288.94 109.04 288.82C108.933 288.7 108.88 288.56 108.88 288.4V275.6C108.88 275.44 108.94 275.3 109.06 275.18C109.18 275.06 109.32 275 109.48 275H114.22ZM114.22 281.92C114.74 281.92 115.193 281.793 115.58 281.54C115.967 281.273 116.267 280.92 116.48 280.48C116.707 280.027 116.82 279.527 116.82 278.98C116.82 278.433 116.707 277.953 116.48 277.54C116.267 277.113 115.967 276.78 115.58 276.54C115.193 276.3 114.74 276.18 114.22 276.18H109.98L110.08 276V282.04L109.96 281.92H114.22ZM128.776 278.78C128.95 278.78 129.09 278.84 129.196 278.96C129.316 279.08 129.376 279.227 129.376 279.4V288.4C129.376 288.56 129.316 288.7 129.196 288.82C129.076 288.94 128.936 289 128.776 289C128.603 289 128.456 288.94 128.336 288.82C128.23 288.7 128.176 288.56 128.176 288.4V286.02L128.516 285.86C128.516 286.233 128.41 286.613 128.196 287C127.996 287.387 127.716 287.747 127.356 288.08C126.996 288.413 126.57 288.687 126.076 288.9C125.596 289.1 125.076 289.2 124.516 289.2C123.61 289.2 122.796 288.967 122.076 288.5C121.37 288.033 120.81 287.393 120.396 286.58C119.996 285.767 119.796 284.853 119.796 283.84C119.796 282.8 120.003 281.887 120.416 281.1C120.83 280.3 121.39 279.673 122.096 279.22C122.803 278.767 123.603 278.54 124.496 278.54C125.07 278.54 125.603 278.64 126.096 278.84C126.603 279.04 127.043 279.313 127.416 279.66C127.79 280.007 128.076 280.407 128.276 280.86C128.49 281.3 128.596 281.76 128.596 282.24L128.176 281.94V279.4C128.176 279.227 128.23 279.08 128.336 278.96C128.456 278.84 128.603 278.78 128.776 278.78ZM124.616 288.08C125.323 288.08 125.95 287.9 126.496 287.54C127.043 287.167 127.47 286.66 127.776 286.02C128.096 285.367 128.256 284.64 128.256 283.84C128.256 283.053 128.096 282.347 127.776 281.72C127.47 281.093 127.043 280.593 126.496 280.22C125.95 279.847 125.323 279.66 124.616 279.66C123.923 279.66 123.296 279.84 122.736 280.2C122.19 280.56 121.756 281.053 121.436 281.68C121.13 282.307 120.976 283.027 120.976 283.84C120.976 284.64 121.13 285.367 121.436 286.02C121.756 286.66 122.19 287.167 122.736 287.54C123.283 287.9 123.91 288.08 124.616 288.08ZM136.785 278.54C137.385 278.54 137.939 278.647 138.445 278.86C138.952 279.06 139.392 279.327 139.765 279.66C140.152 279.98 140.452 280.327 140.665 280.7C140.879 281.06 140.985 281.407 140.985 281.74L140.645 281.26V279.4C140.645 279.227 140.699 279.08 140.805 278.96C140.925 278.84 141.072 278.78 141.245 278.78C141.432 278.78 141.579 278.84 141.685 278.96C141.792 279.08 141.845 279.227 141.845 279.4V288.06C141.845 289.127 141.625 290.027 141.185 290.76C140.745 291.493 140.145 292.047 139.385 292.42C138.639 292.807 137.785 293 136.825 293C136.359 293 135.865 292.94 135.345 292.82C134.839 292.7 134.399 292.547 134.025 292.36C133.665 292.173 133.465 291.98 133.425 291.78C133.319 291.66 133.265 291.54 133.265 291.42C133.279 291.313 133.339 291.22 133.445 291.14C133.579 291.047 133.719 291.033 133.865 291.1C134.012 291.18 134.232 291.28 134.525 291.4C134.659 291.44 134.839 291.5 135.065 291.58C135.292 291.66 135.559 291.727 135.865 291.78C136.185 291.847 136.519 291.88 136.865 291.88C138.065 291.88 138.992 291.533 139.645 290.84C140.312 290.16 140.645 289.26 140.645 288.14V286.22L140.865 286.28C140.745 286.76 140.545 287.18 140.265 287.54C139.999 287.9 139.679 288.207 139.305 288.46C138.932 288.7 138.525 288.88 138.085 289C137.659 289.133 137.232 289.2 136.805 289.2C135.885 289.2 135.059 288.967 134.325 288.5C133.592 288.033 133.005 287.4 132.565 286.6C132.139 285.8 131.925 284.887 131.925 283.86C131.925 282.847 132.139 281.94 132.565 281.14C133.005 280.327 133.585 279.693 134.305 279.24C135.039 278.773 135.865 278.54 136.785 278.54ZM136.925 279.66C136.192 279.66 135.532 279.847 134.945 280.22C134.372 280.58 133.919 281.08 133.585 281.72C133.265 282.347 133.105 283.06 133.105 283.86C133.105 284.66 133.265 285.38 133.585 286.02C133.919 286.66 134.372 287.167 134.945 287.54C135.532 287.9 136.192 288.08 136.925 288.08C137.659 288.08 138.312 287.9 138.885 287.54C139.459 287.18 139.912 286.687 140.245 286.06C140.579 285.42 140.745 284.687 140.745 283.86C140.745 283.033 140.579 282.307 140.245 281.68C139.912 281.04 139.459 280.547 138.885 280.2C138.312 279.84 137.659 279.66 136.925 279.66ZM149.235 289.2C148.208 289.2 147.302 288.98 146.515 288.54C145.728 288.1 145.115 287.487 144.675 286.7C144.235 285.913 144.015 284.993 144.015 283.94C144.015 282.807 144.235 281.84 144.675 281.04C145.128 280.24 145.708 279.627 146.415 279.2C147.135 278.76 147.895 278.54 148.695 278.54C149.282 278.54 149.848 278.647 150.395 278.86C150.955 279.06 151.448 279.367 151.875 279.78C152.315 280.18 152.662 280.673 152.915 281.26C153.182 281.847 153.328 282.527 153.355 283.3C153.342 283.46 153.275 283.6 153.155 283.72C153.035 283.827 152.895 283.88 152.735 283.88H144.715L144.475 282.8H152.355L152.095 283.04V282.64C152.042 282.013 151.842 281.48 151.495 281.04C151.148 280.6 150.728 280.267 150.235 280.04C149.742 279.813 149.228 279.7 148.695 279.7C148.295 279.7 147.882 279.78 147.455 279.94C147.042 280.1 146.662 280.353 146.315 280.7C145.982 281.033 145.708 281.467 145.495 282C145.282 282.52 145.175 283.14 145.175 283.86C145.175 284.647 145.335 285.36 145.655 286C145.975 286.64 146.435 287.147 147.035 287.52C147.648 287.893 148.375 288.08 149.215 288.08C149.682 288.08 150.102 288.013 150.475 287.88C150.848 287.747 151.175 287.573 151.455 287.36C151.735 287.133 151.968 286.9 152.155 286.66C152.302 286.54 152.448 286.48 152.595 286.48C152.728 286.48 152.842 286.533 152.935 286.64C153.042 286.747 153.095 286.867 153.095 287C153.095 287.16 153.028 287.3 152.895 287.42C152.495 287.9 151.975 288.32 151.335 288.68C150.695 289.027 149.995 289.2 149.235 289.2ZM166.213 278.54C167.093 278.54 167.793 278.72 168.313 279.08C168.846 279.427 169.226 279.907 169.453 280.52C169.693 281.12 169.812 281.787 169.812 282.52V288.4C169.812 288.56 169.753 288.7 169.633 288.82C169.513 288.94 169.373 289 169.213 289C169.026 289 168.879 288.94 168.773 288.82C168.666 288.7 168.613 288.56 168.613 288.4V282.58C168.613 282.047 168.526 281.56 168.353 281.12C168.179 280.68 167.893 280.327 167.493 280.06C167.106 279.793 166.593 279.66 165.953 279.66C165.379 279.66 164.833 279.793 164.313 280.06C163.806 280.327 163.393 280.68 163.073 281.12C162.753 281.56 162.593 282.047 162.593 282.58V288.4C162.593 288.56 162.533 288.7 162.413 288.82C162.293 288.94 162.153 289 161.993 289C161.806 289 161.659 288.94 161.553 288.82C161.446 288.7 161.393 288.56 161.393 288.4V279.44C161.393 279.28 161.446 279.14 161.553 279.02C161.673 278.9 161.819 278.84 161.993 278.84C162.166 278.84 162.306 278.9 162.413 279.02C162.533 279.14 162.593 279.28 162.593 279.44V281.12L162.133 281.84C162.159 281.413 162.293 281.007 162.533 280.62C162.786 280.22 163.106 279.867 163.493 279.56C163.879 279.24 164.306 278.993 164.773 278.82C165.253 278.633 165.733 278.54 166.213 278.54ZM182.475 283.88C182.475 284.893 182.255 285.807 181.815 286.62C181.375 287.42 180.775 288.053 180.015 288.52C179.255 288.973 178.388 289.2 177.415 289.2C176.468 289.2 175.608 288.973 174.835 288.52C174.075 288.053 173.468 287.42 173.015 286.62C172.575 285.807 172.355 284.893 172.355 283.88C172.355 282.853 172.575 281.94 173.015 281.14C173.468 280.34 174.075 279.707 174.835 279.24C175.608 278.773 176.468 278.54 177.415 278.54C178.388 278.54 179.255 278.773 180.015 279.24C180.775 279.707 181.375 280.34 181.815 281.14C182.255 281.94 182.475 282.853 182.475 283.88ZM181.275 283.88C181.275 283.067 181.108 282.347 180.775 281.72C180.442 281.08 179.982 280.58 179.395 280.22C178.822 279.847 178.162 279.66 177.415 279.66C176.695 279.66 176.042 279.847 175.455 280.22C174.868 280.58 174.402 281.08 174.055 281.72C173.722 282.347 173.555 283.067 173.555 283.88C173.555 284.693 173.722 285.413 174.055 286.04C174.402 286.667 174.868 287.167 175.455 287.54C176.042 287.9 176.695 288.08 177.415 288.08C178.162 288.08 178.822 287.9 179.395 287.54C179.982 287.167 180.442 286.667 180.775 286.04C181.108 285.413 181.275 284.693 181.275 283.88ZM184.365 278.82H189.025C189.185 278.82 189.319 278.88 189.425 279C189.532 279.107 189.585 279.24 189.585 279.4C189.585 279.547 189.532 279.673 189.425 279.78C189.319 279.887 189.185 279.94 189.025 279.94H184.365C184.205 279.94 184.065 279.887 183.945 279.78C183.839 279.66 183.785 279.527 183.785 279.38C183.785 279.22 183.839 279.087 183.945 278.98C184.065 278.873 184.205 278.82 184.365 278.82ZM186.425 276C186.599 276 186.739 276.06 186.845 276.18C186.965 276.3 187.025 276.44 187.025 276.6V286.64C187.025 287.013 187.072 287.293 187.165 287.48C187.272 287.667 187.405 287.793 187.565 287.86C187.725 287.913 187.885 287.94 188.045 287.94C188.152 287.94 188.245 287.927 188.325 287.9C188.419 287.86 188.519 287.84 188.625 287.84C188.745 287.84 188.845 287.887 188.925 287.98C189.019 288.073 189.065 288.193 189.065 288.34C189.065 288.527 188.959 288.687 188.745 288.82C188.532 288.94 188.279 289 187.985 289C187.865 289 187.685 288.993 187.445 288.98C187.205 288.953 186.959 288.88 186.705 288.76C186.452 288.627 186.239 288.4 186.065 288.08C185.905 287.76 185.825 287.3 185.825 286.7V276.6C185.825 276.44 185.879 276.3 185.985 276.18C186.105 276.06 186.252 276 186.425 276ZM200.971 274.28C201.171 274.28 201.385 274.3 201.611 274.34C201.851 274.38 202.058 274.453 202.231 274.56C202.405 274.653 202.491 274.8 202.491 275C202.491 275.147 202.438 275.28 202.331 275.4C202.225 275.507 202.105 275.56 201.971 275.56C201.838 275.56 201.671 275.527 201.471 275.46C201.271 275.38 201.058 275.34 200.831 275.34C200.551 275.34 200.311 275.407 200.111 275.54C199.911 275.66 199.758 275.84 199.651 276.08C199.545 276.307 199.491 276.587 199.491 276.92V288.4C199.491 288.56 199.431 288.7 199.311 288.82C199.205 288.94 199.065 289 198.891 289C198.718 289 198.571 288.94 198.451 288.82C198.345 288.7 198.291 288.56 198.291 288.4V276.92C198.291 276.067 198.538 275.413 199.031 274.96C199.538 274.507 200.185 274.28 200.971 274.28ZM201.731 278.98C201.891 278.98 202.025 279.033 202.131 279.14C202.238 279.247 202.291 279.38 202.291 279.54C202.291 279.7 202.238 279.833 202.131 279.94C202.025 280.047 201.891 280.1 201.731 280.1H196.831C196.685 280.1 196.551 280.047 196.431 279.94C196.325 279.82 196.271 279.687 196.271 279.54C196.271 279.367 196.325 279.233 196.431 279.14C196.551 279.033 196.685 278.98 196.831 278.98H201.731ZM213.256 283.88C213.256 284.893 213.036 285.807 212.596 286.62C212.156 287.42 211.556 288.053 210.796 288.52C210.036 288.973 209.17 289.2 208.196 289.2C207.25 289.2 206.39 288.973 205.616 288.52C204.856 288.053 204.25 287.42 203.796 286.62C203.356 285.807 203.136 284.893 203.136 283.88C203.136 282.853 203.356 281.94 203.796 281.14C204.25 280.34 204.856 279.707 205.616 279.24C206.39 278.773 207.25 278.54 208.196 278.54C209.17 278.54 210.036 278.773 210.796 279.24C211.556 279.707 212.156 280.34 212.596 281.14C213.036 281.94 213.256 282.853 213.256 283.88ZM212.056 283.88C212.056 283.067 211.89 282.347 211.556 281.72C211.223 281.08 210.763 280.58 210.176 280.22C209.603 279.847 208.943 279.66 208.196 279.66C207.476 279.66 206.823 279.847 206.236 280.22C205.65 280.58 205.183 281.08 204.836 281.72C204.503 282.347 204.336 283.067 204.336 283.88C204.336 284.693 204.503 285.413 204.836 286.04C205.183 286.667 205.65 287.167 206.236 287.54C206.823 287.9 207.476 288.08 208.196 288.08C208.943 288.08 209.603 287.9 210.176 287.54C210.763 287.167 211.223 286.667 211.556 286.04C211.89 285.413 212.056 284.693 212.056 283.88ZM223.447 278.84C223.62 278.84 223.76 278.9 223.867 279.02C223.987 279.14 224.047 279.28 224.047 279.44V285.08C224.047 286.4 223.673 287.407 222.927 288.1C222.18 288.793 221.173 289.14 219.907 289.14C218.653 289.14 217.653 288.793 216.907 288.1C216.173 287.407 215.807 286.4 215.807 285.08V279.44C215.807 279.28 215.86 279.14 215.967 279.02C216.087 278.9 216.233 278.84 216.407 278.84C216.58 278.84 216.72 278.9 216.827 279.02C216.947 279.14 217.007 279.28 217.007 279.44V285.08C217.007 286.04 217.26 286.773 217.767 287.28C218.287 287.773 219 288.02 219.907 288.02C220.827 288.02 221.547 287.773 222.067 287.28C222.587 286.773 222.847 286.04 222.847 285.08V279.44C222.847 279.28 222.9 279.14 223.007 279.02C223.113 278.9 223.26 278.84 223.447 278.84ZM232.013 278.54C232.893 278.54 233.593 278.72 234.113 279.08C234.647 279.427 235.027 279.907 235.253 280.52C235.493 281.12 235.613 281.787 235.613 282.52V288.4C235.613 288.56 235.553 288.7 235.433 288.82C235.313 288.94 235.173 289 235.013 289C234.827 289 234.68 288.94 234.573 288.82C234.467 288.7 234.413 288.56 234.413 288.4V282.58C234.413 282.047 234.327 281.56 234.153 281.12C233.98 280.68 233.693 280.327 233.293 280.06C232.907 279.793 232.393 279.66 231.753 279.66C231.18 279.66 230.633 279.793 230.113 280.06C229.607 280.327 229.193 280.68 228.873 281.12C228.553 281.56 228.393 282.047 228.393 282.58V288.4C228.393 288.56 228.333 288.7 228.213 288.82C228.093 288.94 227.953 289 227.793 289C227.607 289 227.46 288.94 227.353 288.82C227.247 288.7 227.193 288.56 227.193 288.4V279.44C227.193 279.28 227.247 279.14 227.353 279.02C227.473 278.9 227.62 278.84 227.793 278.84C227.967 278.84 228.107 278.9 228.213 279.02C228.333 279.14 228.393 279.28 228.393 279.44V281.12L227.933 281.84C227.96 281.413 228.093 281.007 228.333 280.62C228.587 280.22 228.907 279.867 229.293 279.56C229.68 279.24 230.107 278.993 230.573 278.82C231.053 278.633 231.533 278.54 232.013 278.54ZM247.136 274.2C247.309 274.2 247.449 274.26 247.556 274.38C247.676 274.487 247.736 274.627 247.736 274.8V288.4C247.736 288.56 247.676 288.7 247.556 288.82C247.436 288.94 247.296 289 247.136 289C246.962 289 246.816 288.94 246.696 288.82C246.589 288.7 246.536 288.56 246.536 288.4V286.02L246.876 285.74C246.876 286.113 246.776 286.507 246.576 286.92C246.376 287.32 246.089 287.693 245.716 288.04C245.356 288.387 244.929 288.667 244.436 288.88C243.956 289.093 243.436 289.2 242.876 289.2C241.982 289.2 241.176 288.967 240.456 288.5C239.749 288.033 239.189 287.4 238.776 286.6C238.362 285.8 238.156 284.887 238.156 283.86C238.156 282.847 238.362 281.94 238.776 281.14C239.189 280.327 239.749 279.693 240.456 279.24C241.162 278.773 241.962 278.54 242.856 278.54C243.402 278.54 243.922 278.64 244.416 278.84C244.909 279.04 245.342 279.313 245.716 279.66C246.102 280.007 246.402 280.407 246.616 280.86C246.842 281.3 246.956 281.76 246.956 282.24L246.536 281.94V274.8C246.536 274.64 246.589 274.5 246.696 274.38C246.816 274.26 246.962 274.2 247.136 274.2ZM242.976 288.08C243.696 288.08 244.322 287.9 244.856 287.54C245.402 287.167 245.829 286.667 246.136 286.04C246.456 285.4 246.616 284.673 246.616 283.86C246.616 283.06 246.456 282.347 246.136 281.72C245.829 281.08 245.402 280.58 244.856 280.22C244.309 279.847 243.682 279.66 242.976 279.66C242.282 279.66 241.656 279.847 241.096 280.22C240.549 280.58 240.116 281.08 239.796 281.72C239.489 282.347 239.336 283.06 239.336 283.86C239.336 284.66 239.489 285.38 239.796 286.02C240.116 286.66 240.549 287.167 241.096 287.54C241.656 287.9 242.282 288.08 242.976 288.08Z" fill="black"/>
</svg>
